<svg id="Layer_1" data-name="Layer 1" xmlns="http://www.w3.org/2000/svg" viewBox="0 0 100 100"><defs><style>.cls-1{opacity:0.6;}.cls-2,.cls-4,.cls-6{fill:#231f20;}.cls-3{opacity:0.3;}.cls-4{opacity:0.4;}.cls-5{opacity:0.1;}.cls-6{opacity:0.8;}</style></defs><title>sentinela-ico</title><g class="cls-1"><path class="cls-2" d="M75.14,28.33a2.33,2.33,0,1,0,2.33,2.33A2.33,2.33,0,0,0,75.14,28.33Zm0,3.86a1.53,1.53,0,1,1,1.53-1.53A1.53,1.53,0,0,1,75.14,32.19Z"/><path class="cls-2" d="M81.78,47.62A2.33,2.33,0,1,0,84.11,50,2.33,2.33,0,0,0,81.78,47.62Zm0,3.86A1.53,1.53,0,1,1,83.31,50,1.53,1.53,0,0,1,81.78,51.48Z"/><path class="cls-2" d="M67.64,73.77A2.33,2.33,0,1,0,70,76.1,2.33,2.33,0,0,0,67.64,73.77Zm0,3.86a1.53,1.53,0,1,1,1.53-1.53A1.53,1.53,0,0,1,67.64,77.63Z"/><path class="cls-2" d="M17.57,68.87a2.33,2.33,0,1,0,2.33,2.33A2.33,2.33,0,0,0,17.57,68.87Zm0,3.86a1.53,1.53,0,1,1,1.53-1.53A1.53,1.53,0,0,1,17.57,72.74Z"/><path class="cls-2" d="M12.36,54.29a2.33,2.33,0,1,0,2.33,2.33A2.33,2.33,0,0,0,12.36,54.29Zm0,3.86a1.53,1.53,0,1,1,1.53-1.53A1.53,1.53,0,0,1,12.36,58.15Z"/><path class="cls-2" d="M32.73,21a2.33,2.33,0,1,0,2.33,2.33A2.33,2.33,0,0,0,32.73,21Zm0,3.86a1.53,1.53,0,1,1,1.53-1.53A1.53,1.53,0,0,1,32.73,24.9Z"/></g><g class="cls-3"><path class="cls-2" d="M15,68.78a29.34,29.34,0,0,1-3.08-8.63l.46,0A3.54,3.54,0,0,0,13.57,60a27.24,27.24,0,0,0,2.81,7.91A3.53,3.53,0,0,0,15,68.78Z"/><path class="cls-2" d="M80.76,46.55a30.3,30.3,0,0,0-4.28-12.6,3.57,3.57,0,0,0,1.35-1,31.91,31.91,0,0,1,4.59,13.49,3.52,3.52,0,0,0-1.67.09Z"/><path class="cls-2" d="M64.31,77.36A30.89,30.89,0,0,1,30.44,26.08a3.57,3.57,0,0,1-1-1.34,32.5,32.5,0,0,0-11.93,24l0,.4H6.07v1.67H17.51v.4A32.55,32.55,0,0,0,65.26,78.74,3.58,3.58,0,0,1,64.31,77.36Z"/><path class="cls-2" d="M93.93,50.78V49.12h-8.7a3.58,3.58,0,0,1,0,1.67Z"/></g><path class="cls-4" d="M65.7,47.52a6.73,6.73,0,0,1-7.46-11.12,15.84,15.84,0,0,0-22.64,20l.13.22a3.57,3.57,0,0,1,4.19,5.47A15.82,15.82,0,0,0,65.7,47.52Z"/><g class="cls-5"><path class="cls-2" d="M35.73,56.64l-.13-.22a15.83,15.83,0,0,1,22.64-20l-.07.06A6.72,6.72,0,0,1,61.07,35,18.58,18.58,0,0,0,33.69,58.76,3.58,3.58,0,0,1,35.73,56.64Z"/><path class="cls-2" d="M68.08,45.43a6.79,6.79,0,0,1-2.38,2.09A15.83,15.83,0,0,1,39.91,62.11a3.57,3.57,0,0,1-2.55,1.41A18.58,18.58,0,0,0,68.08,45.43Z"/></g><path class="cls-6" d="M50.06,23.8A26.15,26.15,0,1,0,76.21,50,26.15,26.15,0,0,0,50.06,23.8Zm0,44.74a18.51,18.51,0,0,1-12.69-5l-.31,0a3.57,3.57,0,0,1-3.37-4.77A18.58,18.58,0,0,1,61.07,35a6.73,6.73,0,0,1,7,10.44,18.59,18.59,0,0,1-18,23.11Z"/><circle class="cls-2" cx="62.57" cy="41.55" r="6.06"/><circle class="cls-2" cx="37.06" cy="59.96" r="3.22"/></svg>