<svg id="Layer_1" data-name="Layer 1" xmlns="http://www.w3.org/2000/svg" viewBox="0 0 100 100"><defs><style>.cls-1,.cls-4,.cls-6{fill:#231f20;}.cls-2{opacity:0.6;}.cls-3{opacity:0.3;}.cls-4{opacity:0.4;}.cls-5{opacity:0.1;}.cls-6{opacity:0.8;}</style></defs><title>sentinela-logo</title><path class="cls-1" d="M3.08,76.82a3.25,3.25,0,0,1,.82-1.5,5,5,0,0,1,1.37-1,7.61,7.61,0,0,1,1.65-.58,26.17,26.17,0,0,1,4.94-.41V71.52H10.23A19.91,19.91,0,0,0,5.87,72a8.49,8.49,0,0,0-2.44,1.14,5.89,5.89,0,0,0-1.76,1.89A5.25,5.25,0,0,0,1,77.78v1H9.83a3,3,0,0,1-1,1.7,5.46,5.46,0,0,1-1.78,1,10,10,0,0,1-2.09.44c-.71.08-2.75.24-3.93.22V84H2q1,0,2.18-.09a17.68,17.68,0,0,0,2.23-.32,10.68,10.68,0,0,0,2.08-.66,6.06,6.06,0,0,0,1.74-1.13,5,5,0,0,0,1.18-1.69,5.81,5.81,0,0,0,.43-2.34v-1Z"/><path class="cls-1" d="M46.29,84a3,3,0,0,1-1.23-.25,3.29,3.29,0,0,1-1.69-1.69,3,3,0,0,1-.25-1.23V73.44h-2V71.52h2V67H45v4.54H49v1.93H45v7.39a1.26,1.26,0,0,0,1.24,1.24H49V84Z"/><rect class="cls-1" x="52.03" y="71.52" width="1.93" height="12.49"/><rect class="cls-1" x="52.03" y="66.97" width="1.93" height="1.95"/><rect class="cls-1" x="83.23" y="66.97" width="1.95" height="17.03"/><path class="cls-1" d="M99,74.64h0a3.07,3.07,0,0,0-.25-1.19,3.25,3.25,0,0,0-.69-1,3.07,3.07,0,0,0-1-.67,3.22,3.22,0,0,0-1.24-.24H90.9a3.22,3.22,0,0,0-1.24.24,3.08,3.08,0,0,0-1,.67,3.25,3.25,0,0,0-.69,1,3.08,3.08,0,0,0-.25,1.24v6.06c0,3.78,3,3.35,4,3.1A9.2,9.2,0,0,0,97.07,80v4H99V74.69s0,0,0,0Zm-7.64,7.23c-.82.26-1.72.54-1.73-1.11V74.69A1.17,1.17,0,0,1,90,73.8a1.26,1.26,0,0,1,.89-.36h4.9a1.26,1.26,0,0,1,.89.36,1.15,1.15,0,0,1,.36.7C95.86,80.77,91.95,81.68,91.36,81.86Z"/><path class="cls-1" d="M64.05,71.67a9.2,9.2,0,0,0-5.41,3.87v-4H56.71V84h1.95V82a8.32,8.32,0,0,1,5.69-8.36c.82-.26,1.72-.54,1.73,1.11V84H68V74.77C68,71,65,71.42,64.05,71.67Z"/><path class="cls-1" d="M34.68,71.67a9.2,9.2,0,0,0-5.41,3.87v-4H27.34V84h1.95V82A8.32,8.32,0,0,1,35,73.66c.82-.26,1.72-.54,1.73,1.11V84h1.93V74.77C38.64,71,35.63,71.42,34.68,71.67Z"/><path class="cls-1" d="M80.5,82a12.15,12.15,0,0,1-1.75-.38,8.1,8.1,0,0,1-1.8-.79q.53-.61,1.16-1.4a16.43,16.43,0,0,0,1.15-1.66A11.32,11.32,0,0,0,80.15,76a4.84,4.84,0,0,0,.36-1.75A2.85,2.85,0,0,0,80.25,73a2.19,2.19,0,0,0-.7-.84,3.09,3.09,0,0,0-1-.47,4.91,4.91,0,0,0-1.24-.15H73.55c-3.78,0-3.35,3-3.1,4a10.86,10.86,0,0,0,.41,1.24A11.37,11.37,0,0,0,73,80.2a11.83,11.83,0,0,0,3.3,2.51,11.19,11.19,0,0,0,4.16,1.24Zm-4.19-3.4q-.56.69-1,1.12a7,7,0,0,1-1.24-1.26,9.48,9.48,0,0,1-1-1.56,11.79,11.79,0,0,1-.7-1.73c-.26-.82-.54-1.72,1.11-1.73h4.17a1.35,1.35,0,0,1,.42.09.79.79,0,0,1,.32.23.66.66,0,0,1,.13.43,3.39,3.39,0,0,1-.35,1.38,12.89,12.89,0,0,1-.85,1.55A15.6,15.6,0,0,1,76.32,78.6Z"/><path class="cls-1" d="M24.55,82a12.15,12.15,0,0,1-1.75-.38,8.11,8.11,0,0,1-1.8-.79q.53-.61,1.16-1.4a16.49,16.49,0,0,0,1.15-1.66A11.37,11.37,0,0,0,24.19,76a4.83,4.83,0,0,0,.36-1.75A2.85,2.85,0,0,0,24.29,73a2.2,2.2,0,0,0-.7-.84,3.1,3.1,0,0,0-1-.47,4.91,4.91,0,0,0-1.24-.15H17.59c-3.78,0-3.35,3-3.1,4a10.9,10.9,0,0,0,.41,1.24,11.37,11.37,0,0,0,2.18,3.49,11.85,11.85,0,0,0,3.3,2.51,11.18,11.18,0,0,0,4.16,1.24Zm-4.19-3.4q-.56.69-1,1.12a7,7,0,0,1-1.24-1.26,9.51,9.51,0,0,1-1-1.56,11.7,11.7,0,0,1-.7-1.73c-.26-.82-.54-1.72,1.11-1.73h4.17a1.35,1.35,0,0,1,.42.09.79.79,0,0,1,.32.23.66.66,0,0,1,.13.43,3.38,3.38,0,0,1-.36,1.38,12.72,12.72,0,0,1-.85,1.55A15.42,15.42,0,0,1,20.36,78.6Z"/><g class="cls-2"><path class="cls-1" d="M66.56,20.8a1.54,1.54,0,1,0,1.54,1.54A1.54,1.54,0,0,0,66.56,20.8Zm0,2.54a1,1,0,1,1,1-1A1,1,0,0,1,66.56,23.35Z"/><path class="cls-1" d="M70.94,33.51A1.54,1.54,0,1,0,72.47,35,1.54,1.54,0,0,0,70.94,33.51Zm0,2.54a1,1,0,1,1,1-1A1,1,0,0,1,70.94,36.05Z"/><path class="cls-1" d="M61.62,50.74a1.54,1.54,0,1,0,1.54,1.54A1.54,1.54,0,0,0,61.62,50.74Zm0,2.54a1,1,0,1,1,1-1A1,1,0,0,1,61.62,53.28Z"/><path class="cls-1" d="M28.63,47.51a1.54,1.54,0,1,0,1.54,1.54A1.54,1.54,0,0,0,28.63,47.51Zm0,2.54a1,1,0,1,1,1-1A1,1,0,0,1,28.63,50.06Z"/><path class="cls-1" d="M25.2,37.9a1.54,1.54,0,1,0,1.54,1.54A1.54,1.54,0,0,0,25.2,37.9Zm0,2.54a1,1,0,1,1,1-1A1,1,0,0,1,25.2,40.45Z"/><path class="cls-1" d="M38.62,16a1.54,1.54,0,1,0,1.54,1.54A1.54,1.54,0,0,0,38.62,16Zm0,2.54a1,1,0,1,1,1-1A1,1,0,0,1,38.62,18.54Z"/></g><g class="cls-3"><path class="cls-1" d="M26.93,47.45a19.34,19.34,0,0,1-2-5.69l.3,0a2.34,2.34,0,0,0,.8-.14,18,18,0,0,0,1.85,5.21A2.32,2.32,0,0,0,26.93,47.45Z"/><path class="cls-1" d="M70.26,32.81a20,20,0,0,0-2.82-8.3,2.35,2.35,0,0,0,.89-.65,21,21,0,0,1,3,8.89,2.31,2.31,0,0,0-1.1.06Z"/><path class="cls-1" d="M59.43,53.1A20.35,20.35,0,0,1,37.11,19.32a2.35,2.35,0,0,1-.65-.89,21.42,21.42,0,0,0-7.86,15.8v.26H21.05v1.1H28.6v.26A21.45,21.45,0,0,0,60.05,54,2.36,2.36,0,0,1,59.43,53.1Z"/><path class="cls-1" d="M78.95,35.59V34.5H73.21a2.35,2.35,0,0,1,0,1.1Z"/></g><path class="cls-4" d="M60.34,33.44a4.44,4.44,0,0,1-4.92-7.33A10.43,10.43,0,0,0,40.51,39.31l.08.15a2.35,2.35,0,0,1,2.76,3.6,10.42,10.42,0,0,0,17-9.62Z"/><g class="cls-5"><path class="cls-1" d="M40.6,39.45l-.08-.15A10.43,10.43,0,0,1,55.43,26.11l0,0a4.43,4.43,0,0,1,1.91-1,12.24,12.24,0,0,0-18,15.66A2.36,2.36,0,0,1,40.6,39.45Z"/><path class="cls-1" d="M61.91,32.06a4.48,4.48,0,0,1-1.57,1.38,10.43,10.43,0,0,1-17,9.62,2.35,2.35,0,0,1-1.68.93A12.24,12.24,0,0,0,61.91,32.06Z"/></g><path class="cls-6" d="M50,17.81A17.23,17.23,0,1,0,67.27,35,17.23,17.23,0,0,0,50,17.81Zm0,29.47A12.2,12.2,0,0,1,41.68,44h-.2a2.35,2.35,0,0,1-2.22-3.14,12.24,12.24,0,0,1,18-15.66,4.43,4.43,0,0,1,5.43,4.32,4.41,4.41,0,0,1-.81,2.55A12.25,12.25,0,0,1,50,47.29Z"/><circle class="cls-1" cx="58.28" cy="29.51" r="4"/><circle class="cls-1" cx="41.47" cy="41.64" r="2.12"/></svg>